<?xml version="1.0" encoding="UTF-8"?>
<svg id="_Слой_1" data-name="Слой 1" xmlns="http://www.w3.org/2000/svg" viewBox="0 0 270 270">
  <rect width="270" height="270" style="fill: #252525;"/>
  <g>
    <path d="m82.33,151.75v8.84h-42.65v-57.9h41.6v8.84h-31.87v14.92h25.22v8.68h-25.22v16.62h32.92Z" style="fill: #fff;"/>
    <path d="m99.12,156.53h-1.62v20.27h-9.16v-57.49h8.92v4.05h1.62c2.27-2.84,5.84-5.11,11.92-5.11,11.35,0,18.33,9.24,18.33,21.73s-7.05,21.65-18.33,21.65c-6,0-9.49-2.19-11.68-5.11Zm-1.87-16.54c0,7.22,3.41,13.87,11.43,13.87,7.54,0,11.27-5.92,11.27-13.87s-3.73-13.95-11.27-13.95c-8.03,0-11.43,6.65-11.43,13.95Z" style="fill: #fff;"/>
    <path d="m146.07,156.53h-1.62v20.27h-9.16v-57.49h8.92v4.05h1.62c2.27-2.84,5.84-5.11,11.92-5.11,11.35,0,18.33,9.24,18.33,21.73s-7.05,21.65-18.33,21.65c-6,0-9.49-2.19-11.68-5.11Zm-1.87-16.54c0,7.22,3.41,13.87,11.43,13.87,7.54,0,11.27-5.92,11.27-13.87s-3.73-13.95-11.27-13.95c-8.03,0-11.43,6.65-11.43,13.95Z" style="fill: #fff;"/>
    <path d="m182.07,110.8v-9.16h9.73v9.16h-9.73Zm9.41,49.79h-9.16v-41.27h9.16v41.27Z" style="fill: #fff;"/>
    <path d="m237.37,140.72h-30.49c.24,8.43,4.14,13.14,11.59,13.14,4.95,0,7.87-1.95,9-5.27h9.33c-1.54,7.62-7.7,13.05-18.41,13.05-12.97,0-20.59-9.08-20.59-21.97s7.7-21.41,20.35-21.41,19.06,8.68,19.22,19.38v3.08Zm-30.08-6.81h20.68c-.57-4.62-3.89-8.35-9.89-8.35-6.41,0-9.73,3.65-10.78,8.35Z" style="fill: #fff;"/>
  </g>
</svg>