<!-- Exported by Character Map UWP -->
<svg height="100%" viewBox="256 64 512 896" width="100%" xmlns="http://www.w3.org/2000/svg" xmlns:xlink="http://www.w3.org/1999/xlink">
  <path d="M704,64C712.667,64.0001 720.917,65.6667 728.75,69C736.583,72.3334 743.417,76.9167 749.25,82.75C755.083,88.5834 759.667,95.4167 763,103.25C766.333,111.083 768,119.333 768,128L768,960L256,960L256,128C256,119.333 257.667,111.083 261,103.25C264.333,95.4167 268.917,88.5834 274.75,82.75C280.583,76.9167 287.417,72.3334 295.25,69C303.083,65.6667 311.333,64.0001 320,64ZM704,128L320,128L320,896L704,896ZM640,256L384,256L384,192L640,192ZM640,704L384,704L384,640L640,640ZM640,832L384,832L384,768L640,768Z" fill="#7E7C7C" fill-opacity="1">
  </path>
</svg>
