<svg xmlns="http://www.w3.org/2000/svg" viewBox="0 0 32 32">
  <path d="M16.033,0a16.151,16.151,0,0,0-5.082,31.442.8.8,0,0,0,1.082-.787c0-.361-.033-1.672-.033-2.984-4.459.951-5.377-1.934-5.377-1.934a4.217,4.217,0,0,0-1.77-2.361c-1.443-.984.1-.984.1-.984A3.344,3.344,0,0,1,7.41,24.065a3.387,3.387,0,0,0,4.656,1.344,3.355,3.355,0,0,1,1.016-2.164C9.541,22.885,5.8,21.475,5.8,15.278a6.248,6.248,0,0,1,1.639-4.328,5.769,5.769,0,0,1,.164-4.262S8.951,6.262,12,8.361a14.886,14.886,0,0,1,4-.525,16.324,16.324,0,0,1,4,.525c3.049-2.1,4.393-1.672,4.393-1.672a5.754,5.754,0,0,1,.164,4.262A6.1,6.1,0,0,1,26.2,15.278c0,6.2-3.738,7.574-7.311,7.967a3.786,3.786,0,0,1,1.082,2.984c0,2.164-.033,3.9-.033,4.426a.8.8,0,0,0,1.082.787A16.145,16.145,0,0,0,16.033,0Z" fill="#1b1f24"/>
</svg>
